# xmcd
# 
# Track frame offsets:
#     150
#     12593
#     24462
#     37359
#     50830
#     64701
#     74376
#     85589
#     111271
#     124185
#     136101
#     148567
#     159796
#     173933
#     187146
#     199648
#     211240
#     222985
#     234451
#     248215
#     260915
#     274527
#     289492
#     301777
#     313093
#     325641
#     336365
# 
# Disc length: 4648
# 
# Revision: 2
# Processed by: cddbd v1.5.2PL0 Copyright (c) Steve Scherf et al.
# Submitted via: fre:ac v1.0.31
# 
DISCID=a012261b
DTITLE=Motown - Complete Motown Singles - Volume 05 - Disc 24
DYEAR=2006
DGENRE=R&B
TTITLE0=The Vows - Buttered Popcorn (mono)
TTITLE1=The Vows - Tell Me (mono)
TTITLE2=The Lewis Sisters - He's An Oddball (mono)
TTITLE3=The Lewis Sisters - By Some Chance (mono)
TTITLE4=Marv Johnson - Why Do You Want To Let Me Go (mono)
TTITLE5=Marv Johnson - I'm Not A Plaything (mono)
TTITLE6=The Supremes - The Only Time I'm Happy (mono)
TTITLE7=The Supremes - Supremes Interview (mono)
TTITLE8=The Temptations - Since I Lost My Baby (mono)
TTITLE9=The Temptations - You've Got To Earn It (mono)
TTITLE10=The Spinners - I'll Always Love You (mono)
TTITLE11=The Spinners - Tomorrow May Never Come (mono)
TTITLE12=Danny Day - This Time Last Summer (mono)
TTITLE13=Danny Day - Please Don't Turn The Lights Out (mono)
TTITLE14=Dorsey Burnette - Why Break My Heart (Just To Run Around) (mono)
TTITLE15=Dorsey Burnette - They're Only Words (mono)
TTITLE16=Marvin Gaye - Pretty Little Baby (mono)
TTITLE17=Marvin Gaye - Now That You've Won Me (mono)
TTITLE18=The Contours - First I Look At The Purse (mono)
TTITLE19=The Contours - Searching For A Girl (mono)
TTITLE20=The Miracles - The Tracks Of My Tears (mono)
TTITLE21=The Miracles - A Fork In The Road (mono)
TTITLE22=Jr. Walker and The All Stars - Shake And Fingerpop (mono)
TTITLE23=Jr. Walker and The All Stars - Cleo's Back (mono)
TTITLE24=The Four Tops - It's The Same Old Song (1st pressing mix) (mono)
TTITLE25=The Four Tops - Your Love Is Amazing (mono)
TTITLE26=The Four Tops - It's The Same Old Song (2nd pressing mix) (mono)
EXTD=
EXTT0=
EXTT1=
EXTT2=
EXTT3=
EXTT4=
EXTT5=
EXTT6=
EXTT7=
EXTT8=
EXTT9=
EXTT10=
EXTT11=
EXTT12=
EXTT13=
EXTT14=
EXTT15=
EXTT16=
EXTT17=
EXTT18=
EXTT19=
EXTT20=
EXTT21=
EXTT22=
EXTT23=
EXTT24=
EXTT25=
EXTT26=
PLAYORDER=
